<svg width="16" height="18" viewBox="0 0 16 18" fill="none" xmlns="http://www.w3.org/2000/svg">
<path fill-rule="evenodd" clip-rule="evenodd" d="M2.23082 6.67823C2.23082 3.37869 4.79372 0.666626 8 0.666626C11.2063 0.666626 13.7692 3.37869 13.7692 6.67823V7.22443C13.7692 7.76985 13.9236 8.3014 14.2109 8.75195L15.0628 10.0885C16.0393 11.6203 15.3108 13.7304 13.5651 14.2283C9.92173 15.2675 6.07827 15.2675 2.43485 14.2283C0.689163 13.7304 -0.0392882 11.6203 0.937178 10.0885L1.78915 8.75195C2.07635 8.30139 2.23082 7.76985 2.23082 7.22443V6.67823ZM8 1.82942C5.47113 1.82942 3.38479 3.97973 3.38479 6.67823V7.22443C3.38479 7.99001 3.16821 8.74012 2.76008 9.38037L1.90811 10.7169C1.3282 11.6266 1.78791 12.8353 2.74915 13.1095C6.18708 14.0901 9.81292 14.0901 13.2508 13.1095C14.2121 12.8353 14.6718 11.6266 14.0919 10.7169L13.2399 9.38037C12.8318 8.74012 12.6152 7.99001 12.6152 7.22443V6.67823C12.6152 3.97973 10.5289 1.82942 8 1.82942Z" fill="#164D9E"/>
<path fill-rule="evenodd" clip-rule="evenodd" d="M8.00002 16.1705C6.63288 16.1705 5.49465 15.3414 5.0784 14.2223C4.96657 13.9216 4.63402 13.7692 4.33563 13.8819C4.03723 13.9946 3.886 14.3297 3.99783 14.6304C4.58942 16.221 6.1706 17.3333 8.00002 17.3333C9.82945 17.3333 11.4106 16.221 12.0022 14.6304C12.1141 14.3297 11.9628 13.9946 11.6644 13.8819C11.366 13.7692 11.0335 13.9216 10.9216 14.2223C10.5054 15.3414 9.36717 16.1705 8.00002 16.1705Z" fill="#164D9E"/>
</svg>
