<svg width="18" height="14" viewBox="0 0 18 14" fill="none" xmlns="http://www.w3.org/2000/svg">
<path fill-rule="evenodd" clip-rule="evenodd" d="M0.25 1.5C0.25 1.08579 0.585786 0.75 1 0.75H17C17.4142 0.75 17.75 1.08579 17.75 1.5C17.75 1.91421 17.4142 2.25 17 2.25H1C0.585786 2.25 0.25 1.91421 0.25 1.5ZM0.25 7C0.25 6.58579 0.585786 6.25 1 6.25H17C17.4142 6.25 17.75 6.58579 17.75 7C17.75 7.41421 17.4142 7.75 17 7.75H1C0.585786 7.75 0.25 7.41421 0.25 7ZM0.25 12.5C0.25 12.0858 0.585786 11.75 1 11.75H17C17.4142 11.75 17.75 12.0858 17.75 12.5C17.75 12.9142 17.4142 13.25 17 13.25H1C0.585786 13.25 0.25 12.9142 0.25 12.5Z" fill="#2A3647"/>
</svg>
