<svg width="12" height="14" viewBox="0 0 12 14" fill="none" xmlns="http://www.w3.org/2000/svg">
<path fill-rule="evenodd" clip-rule="evenodd" d="M4.62394 0.333984C4.02754 0.333984 3.50345 0.743488 3.34869 1.33629C3.346 1.34659 3.34364 1.35697 3.3416 1.36742L3.18366 2.17691C3.12904 2.45577 2.88942 2.65718 2.61181 2.65718H0.487593C0.218303 2.65718 0 2.88077 0 3.15657C0 3.43238 0.218303 3.65597 0.487593 3.65597H2.61181H9.38806H11.5124C11.7817 3.65597 12 3.43238 12 3.15657C12 2.88077 11.7817 2.65718 11.5124 2.65718H9.38845C9.11084 2.65718 8.87086 2.45597 8.81624 2.17711L8.65826 1.36742C8.65623 1.35697 8.65386 1.34659 8.65117 1.33629C8.49641 0.743488 7.97232 0.333984 7.37592 0.333984H4.62394ZM7.94287 2.65718C7.90721 2.5666 7.87928 2.47163 7.86 2.37303L7.70571 1.58222C7.66161 1.43442 7.52825 1.33278 7.37592 1.33278H4.62394C4.47161 1.33278 4.33825 1.43442 4.29416 1.58222L4.1399 2.37284C4.12062 2.47144 4.09266 2.5666 4.05699 2.65718H7.94287ZM1.75199 4.80827C2.02056 4.78799 2.25432 4.99453 2.27412 5.2696L1.78784 5.30631L1.30157 5.34303C1.28177 5.06796 1.48343 4.82854 1.75199 4.80827ZM10.2395 5.30631C10.7257 5.34303 10.7257 5.3431 10.7257 5.3431L10.7257 5.34393L10.7255 5.34648L10.7248 5.35638L10.722 5.39491L10.711 5.5422C10.7015 5.66987 10.6874 5.85416 10.6696 6.08106C10.634 6.53477 10.583 7.15926 10.5219 7.84221C10.4002 9.20042 10.2361 10.8149 10.0693 11.7681C9.94651 12.4696 9.60472 12.955 9.12516 13.2508C8.66846 13.5324 8.13165 13.6145 7.64785 13.6235C7.13795 13.6329 6.79359 13.6426 6.51383 13.6504C5.87075 13.6684 5.56843 13.6768 4.37806 13.6511C3.9035 13.6411 3.36892 13.5494 2.91137 13.2619C2.43416 12.9621 2.08157 12.474 1.95802 11.7681C1.79121 10.8149 1.62708 9.20042 1.50545 7.84221C1.44429 7.15926 1.39335 6.53477 1.35769 6.08106C1.33986 5.85416 1.32585 5.66987 1.31628 5.5422L1.30535 5.39491L1.30254 5.35638L1.30182 5.34648L1.30163 5.34393L1.30157 5.34303C1.30157 5.34303 1.30157 5.34303 1.78784 5.30631L2.27412 5.2696L2.27417 5.27033L2.27434 5.27271L2.27503 5.28226L2.2778 5.32006L2.28861 5.46579C2.29809 5.59236 2.31201 5.77541 2.32973 6.00093C2.36519 6.45205 2.41582 7.0727 2.47656 7.75098C2.59873 9.11523 2.75966 10.6876 2.91791 11.5918C2.99369 12.0248 3.18754 12.2637 3.4213 12.4106C3.67463 12.5697 4.01544 12.6445 4.39832 12.6525C5.56464 12.6777 5.84535 12.6699 6.47696 12.6522L6.47762 12.6522C6.7572 12.6443 7.10563 12.6346 7.63007 12.6249C8.03755 12.6173 8.37634 12.5467 8.62214 12.3951C8.8451 12.2576 9.03284 12.0292 9.10939 11.5918C9.26764 10.6876 9.42857 9.11523 9.55074 7.75098C9.61148 7.0727 9.66212 6.45205 9.69757 6.00093C9.71529 5.77541 9.72921 5.59236 9.7387 5.46579L9.74951 5.32006L9.75227 5.28226L9.75296 5.27271L9.75313 5.27033L9.75319 5.26963L10.2395 5.30631ZM10.2395 5.30631L9.75319 5.26963C9.77298 4.99456 10.0067 4.78799 10.2753 4.80827C10.5439 4.82854 10.7455 5.06804 10.7257 5.3431L10.2395 5.30631Z" fill="currentColor"/>
</svg>
