<svg width="20" height="20" viewBox="0 0 20 20" fill="none" xmlns="http://www.w3.org/2000/svg">
<path fill-rule="evenodd" clip-rule="evenodd" d="M5 0.25C5.41421 0.25 5.75 0.585786 5.75 1V2.27174C6.455 2.24998 7.25046 2.24999 8.14471 2.25H11.8553C12.7495 2.24999 13.545 2.24998 14.25 2.27174V1C14.25 0.585786 14.5858 0.25 15 0.25C15.4142 0.25 15.75 0.585786 15.75 1V2.37409C15.7833 2.37816 15.8162 2.38236 15.8489 2.3867C16.9107 2.5277 17.7825 2.82617 18.4726 3.50778C19.164 4.19067 19.468 5.05543 19.6113 6.10854C19.75 7.12736 19.75 8.42647 19.75 10.0547V11.9453C19.75 13.5735 19.75 14.8726 19.6113 15.8915C19.468 16.9446 19.164 17.8093 18.4726 18.4922C17.7825 19.1738 16.9107 19.4723 15.8489 19.6133C14.8192 19.75 13.5054 19.75 11.8553 19.75H8.14471C6.49457 19.75 5.18081 19.75 4.1511 19.6133C3.08929 19.4723 2.21752 19.1738 1.52739 18.4922C0.835965 17.8093 0.532013 16.9446 0.388657 15.8915C0.249968 14.8726 0.249982 13.5735 0.25 11.9453V10.0547C0.249982 8.42648 0.249968 7.12736 0.388657 6.10854C0.532013 5.05543 0.835965 4.19067 1.52739 3.50778C2.21752 2.82617 3.08929 2.5277 4.1511 2.3867C4.18378 2.38236 4.21675 2.37816 4.25 2.37409V1C4.25 0.585786 4.58579 0.25 5 0.25ZM4.34855 3.87365C3.4497 3.993 2.94572 4.21523 2.58144 4.57501C2.22559 4.92647 2.00403 5.40814 1.88216 6.25921C1.92055 6.25315 1.95991 6.25 2 6.25L18 6.25C18.0401 6.25 18.0795 6.25315 18.1178 6.25921C17.996 5.40814 17.7744 4.92647 17.4186 4.57501C17.0543 4.21523 16.5503 3.993 15.6515 3.87365C14.732 3.75155 13.518 3.75 11.8 3.75H8.2C6.482 3.75 5.26802 3.75155 4.34855 3.87365ZM18.2281 7.71469C18.1562 7.73762 18.0795 7.75 18 7.75L2 7.75C1.92048 7.75 1.84385 7.73762 1.77193 7.71469C1.7505 8.38354 1.75 9.17044 1.75 10.1111V11.8889C1.75 13.5865 1.75163 14.7832 1.87495 15.6891C1.9952 16.5725 2.21845 17.0665 2.58144 17.425C2.94572 17.7848 3.4497 18.007 4.34855 18.1264C5.26802 18.2484 6.482 18.25 8.2 18.25H11.8C13.518 18.25 14.732 18.2484 15.6515 18.1264C16.5503 18.007 17.0543 17.7848 17.4186 17.425C17.7815 17.0665 18.0048 16.5725 18.1251 15.6891C18.2484 14.7832 18.25 13.5865 18.25 11.8889V10.1111C18.25 9.17044 18.2495 8.38354 18.2281 7.71469Z" fill="currentColor"/>
<path d="M16 15C16 15.5523 15.5523 16 15 16C14.4477 16 14 15.5523 14 15C14 14.4477 14.4477 14 15 14C15.5523 14 16 14.4477 16 15Z" fill="currentColor"/>
<path d="M16 11C16 11.5523 15.5523 12 15 12C14.4477 12 14 11.5523 14 11C14 10.4477 14.4477 10 15 10C15.5523 10 16 10.4477 16 11Z" fill="currentColor"/>
<path d="M11 15C11 15.5523 10.5523 16 10 16C9.44772 16 9 15.5523 9 15C9 14.4477 9.44772 14 10 14C10.5523 14 11 14.4477 11 15Z" fill="currentColor"/>
<path d="M11 11C11 11.5523 10.5523 12 10 12C9.44772 12 9 11.5523 9 11C9 10.4477 9.44772 10 10 10C10.5523 10 11 10.4477 11 11Z" fill="currentColor"/>
<path d="M6 15C6 15.5523 5.55229 16 5 16C4.44772 16 4 15.5523 4 15C4 14.4477 4.44772 14 5 14C5.55229 14 6 14.4477 6 15Z" fill="currentColor"/>
<path d="M6 11C6 11.5523 5.55229 12 5 12C4.44772 12 4 11.5523 4 11C4 10.4477 4.44772 10 5 10C5.55229 10 6 10.4477 6 11Z" fill="currentColor"/>
</svg>
