<svg width="75" height="64" viewBox="0 0 75 64" fill="none" xmlns="http://www.w3.org/2000/svg">
<path d="M53.3536 16.4835C50.1795 16.4833 47.5879 19.1485 48.3473 22.2304C49.1555 25.5107 50.5303 28.5682 52.3614 31.2935L45.7157 37.9392C42.9907 36.1079 39.9325 34.733 36.6516 33.9248C33.5701 33.1657 30.9053 35.7567 30.9053 38.9304C30.9053 41.8845 33.262 44.2403 36.0233 45.2903C38.3579 46.1781 40.4536 47.5503 42.1871 49.2844C43.9214 51.0182 45.2938 53.1145 46.1818 55.4498C47.2316 58.211 49.5875 60.5672 52.5415 60.5672C55.7155 60.5672 58.3068 57.9021 57.5476 54.8202C56.7394 51.5394 55.3645 48.4817 53.5332 45.7568L60.179 39.111C62.904 40.943 65.9617 42.3177 69.2426 43.1259C72.3242 43.8851 74.9894 41.2941 74.9894 38.1204C74.9894 35.1664 72.6328 32.8108 69.8719 31.7607C67.537 30.8727 65.4412 29.5 63.7076 27.7658C61.9732 26.032 60.6008 23.936 59.7128 21.6009C58.6629 18.8399 56.3074 16.4838 53.3536 16.4835ZM29.5519 61.9196C26.778 59.1457 26.778 54.6477 29.5519 51.8739C32.3258 49.1 36.8237 49.1 39.5976 51.8739C42.3715 54.6477 42.3715 59.1457 39.5976 61.9196C36.8237 64.6935 32.3258 64.6935 29.5519 61.9196Z" fill="#1E58C9"/>
<path d="M27.4717 43C27.3433 39.6393 26.6257 38.132 25.427 36.4806C23.8234 34.2713 24.0203 31.3142 25.9506 29.3838C27.8812 27.4533 30.8867 27.2194 33.3717 28.3502C34.9551 29.0707 36.6157 29.651 38.3377 30.0752C41.4193 30.8343 44.0841 28.2433 44.0841 25.0696C44.0841 22.1154 41.7274 19.7597 38.9661 18.7097C36.6314 17.8219 34.5358 16.4496 32.8023 14.7156C31.068 12.9818 29.6956 10.8855 28.8076 8.55019C27.7577 5.78901 25.4019 3.4328 22.4479 3.4328C19.2739 3.4328 16.6826 6.09791 17.4418 9.17974C17.866 10.9018 18.4463 12.5625 19.1669 14.1458C20.2976 16.6304 20.0638 19.6355 18.1335 21.5658C16.203 23.4964 13.1974 23.7299 10.7125 22.599C9.12929 21.8785 7.46875 21.2983 5.74677 20.8741C2.66516 20.1149 -1.3619e-05 22.7059 -1.33408e-05 25.8796C-1.30818e-05 28.8336 2.35653 31.1892 5.1175 32.2393C7.45237 33.1273 9.54818 34.5 11.2818 36.2342C12.9891 37.9409 14.3457 39.9987 15.2346 42.29C16.3268 45.105 18.7331 47.516 21.7526 47.516L22.9557 47.516C25.4498 47.516 27.4717 45.4941 27.4717 43ZM45.4375 2.08038C48.2113 4.85426 48.2113 9.35224 45.4375 12.1261C42.6636 14.9 38.1656 14.9 35.3917 12.1261C32.6179 9.35224 32.6179 4.85426 35.3917 2.08038C38.1656 -0.693492 42.6636 -0.693492 45.4375 2.08038Z" fill="#1FB982"/>
</svg>
