<svg width="12" height="14" viewBox="0 0 12 14" fill="none" xmlns="http://www.w3.org/2000/svg">
<path fill-rule="evenodd" clip-rule="evenodd" d="M0 13.179C0 12.9096 0.217461 12.6912 0.485714 12.6912H10.8476C11.1159 12.6912 11.3333 12.9096 11.3333 13.179C11.3333 13.4484 11.1159 13.6668 10.8476 13.6668H0.485714C0.217461 13.6668 0 13.4484 0 13.179Z" fill="white"/>
<path fill-rule="evenodd" clip-rule="evenodd" d="M7.02617 1.07567C8.01149 0.0861048 9.60902 0.0861048 10.5943 1.07567C11.5797 2.06524 11.5797 3.66964 10.5943 4.6592L5.67632 9.5984C5.39914 9.8768 5.22987 10.0468 5.0412 10.1946C4.81892 10.3687 4.57841 10.518 4.32393 10.6398C4.10794 10.7432 3.88081 10.8192 3.50891 10.9437L1.77805 11.5231L1.3625 11.6622C0.990541 11.7868 0.580454 11.6895 0.303212 11.4111C0.025969 11.1327 -0.0708386 10.7208 0.0531478 10.3473L0.768615 8.19161C0.892562 7.8181 0.968255 7.59 1.07119 7.37308C1.19247 7.1175 1.34112 6.87596 1.51449 6.65272C1.66165 6.46324 1.83094 6.29323 2.10816 6.01486L7.02617 1.07567ZM1.75564 10.5023L1.20817 9.95242L1.67991 8.53111C1.81726 8.11729 1.87399 7.94903 1.94812 7.7928C2.03905 7.60119 2.15049 7.4201 2.28047 7.25274C2.38646 7.11627 2.51093 6.99007 2.81805 6.68163L6.63315 2.8501C6.79063 3.24684 7.05707 3.72568 7.50638 4.17692C7.95569 4.62817 8.43248 4.89576 8.82752 5.05391L5.01242 8.88544C4.7053 9.19388 4.57963 9.31889 4.44375 9.42533C4.2771 9.55587 4.09679 9.66779 3.906 9.75911C3.75044 9.83357 3.58291 9.89054 3.17086 10.0285L1.75564 10.5023ZM9.60157 4.27652C9.52138 4.25884 9.42111 4.23224 9.30711 4.19252C8.99364 4.0833 8.58132 3.87677 8.19328 3.48706C7.80525 3.09736 7.59961 2.68326 7.49085 2.36845C7.4513 2.25395 7.42481 2.15325 7.40721 2.07271L7.71307 1.76553C8.31903 1.15696 9.30148 1.15696 9.90744 1.76553C10.5134 2.3741 10.5134 3.36078 9.90744 3.96934L9.60157 4.27652Z" fill="white"/>
</svg>
