<svg width="24" height="24" viewBox="0 0 24 24" fill="none" xmlns="http://www.w3.org/2000/svg">
<g id="reset">
<path id="Vector (Stroke)" fill-rule="evenodd" clip-rule="evenodd" d="M12.4726 2H12.5274C13.8662 2 14.9083 2 15.7485 2.05732C16.601 2.11549 17.2989 2.2351 17.94 2.50064C19.5515 3.16816 20.8318 4.44851 21.4994 6.06004C21.7649 6.7011 21.8845 7.39901 21.9427 8.2515C22 9.0917 22 10.1338 22 11.4726V11.5274C22 12.8662 22 13.9083 21.9427 14.7485C21.8845 15.601 21.7649 16.2989 21.4994 16.94C20.8318 18.5515 19.5515 19.8318 17.94 20.4994C17.2989 20.7649 16.601 20.8845 15.7485 20.9427C14.9083 21 13.8662 21 12.5274 21H12.4726C11.1338 21 10.0917 21 9.2515 20.9427C8.39901 20.8845 7.7011 20.7649 7.06004 20.4994C5.44851 19.8318 4.16816 18.5515 3.50064 16.94C3.2351 16.2989 3.11549 15.601 3.05732 14.7485C3 13.9083 3 12.8662 3 11.5274V11.4726C3 10.1338 3 9.0917 3.05732 8.2515C3.11549 7.39901 3.2351 6.7011 3.50064 6.06004C4.16816 4.44851 5.44851 3.16816 7.06004 2.50064C7.7011 2.2351 8.39901 2.11549 9.2515 2.05732C10.0917 2 11.1338 2 12.4726 2ZM4.46154 11.5C4.46154 12.872 4.46193 13.8644 4.51547 14.649C4.56856 15.4271 4.67145 15.9474 4.85092 16.3806C5.3701 17.6341 6.36594 18.6299 7.61935 19.1491C8.05264 19.3286 8.57291 19.4314 9.35099 19.4845C10.1356 19.5381 11.128 19.5385 12.5 19.5385C13.872 19.5385 14.8644 19.5381 15.649 19.4845C16.4271 19.4314 16.9474 19.3286 17.3806 19.1491C18.6341 18.6299 19.6299 17.6341 20.1491 16.3806C20.3286 15.9474 20.4314 15.4271 20.4845 14.649C20.5381 13.8644 20.5385 12.872 20.5385 11.5C20.5385 10.128 20.5381 9.13563 20.4845 8.35099C20.4314 7.57291 20.3286 7.05264 20.1491 6.61935C19.6299 5.36594 18.6341 4.3701 17.3806 3.85092C16.9474 3.67145 16.4271 3.56856 15.649 3.51547C14.8644 3.46193 13.872 3.46154 12.5 3.46154C11.128 3.46154 10.1356 3.46193 9.35099 3.51547C8.57291 3.56856 8.05264 3.67145 7.61935 3.85092C6.36594 4.3701 5.3701 5.36594 4.85092 6.61935C4.67145 7.05264 4.56856 7.57291 4.51547 8.35099C4.46193 9.13563 4.46154 10.128 4.46154 11.5ZM10.0937 5.62429C10.379 5.90968 10.379 6.37237 10.0937 6.65776L8.90526 7.84615H14.1077C16.5292 7.84615 18.4923 9.80922 18.4923 12.2308C18.4923 14.6523 16.5292 16.6154 14.1077 16.6154H12.5C12.0964 16.6154 11.7692 16.2882 11.7692 15.8846C11.7692 15.4811 12.0964 15.1539 12.5 15.1539H14.1077C15.7221 15.1539 17.0308 13.8452 17.0308 12.2308C17.0308 10.6164 15.7221 9.30769 14.1077 9.30769H8.90526L10.0937 10.4961C10.379 10.7815 10.379 11.2442 10.0937 11.5296C9.80827 11.8149 9.34557 11.8149 9.06019 11.5296L6.62429 9.09366C6.33891 8.80827 6.33891 8.34557 6.62429 8.06019L9.06019 5.62429C9.34557 5.33891 9.80827 5.33891 10.0937 5.62429Z" fill="white"/>
</g>
</svg>
