<svg width="19" height="19" viewBox="0 0 19 19" fill="none" xmlns="http://www.w3.org/2000/svg">
<path fill-rule="evenodd" clip-rule="evenodd" d="M12.939 1.72565C12.7001 1.6683 12.4376 1.66348 11.6682 1.66348L5.71345 1.66348C4.861 1.66348 4.26676 1.66407 3.80413 1.70187C3.35026 1.73895 3.08949 1.80808 2.89197 1.90872C2.46861 2.12443 2.1244 2.46864 1.90869 2.89201C1.80805 3.08952 1.73892 3.35029 1.70183 3.80416C1.66404 4.26679 1.66345 4.86103 1.66345 5.71348L1.66345 12.4973C1.66345 13.3497 1.66404 13.944 1.70183 14.4066C1.73892 14.8605 1.80805 15.1212 1.90869 15.3187C2.1244 15.7421 2.46861 16.0863 2.89197 16.302C3.08949 16.4027 3.35026 16.4718 3.80413 16.5089C4.06014 16.5298 4.35644 16.5393 4.7145 16.5436V13.2156L4.7145 13.1851V13.1851C4.71449 12.651 4.71448 12.2051 4.74424 11.8409C4.77528 11.461 4.84239 11.1044 5.01423 10.7671C5.27789 10.2497 5.69858 9.82897 6.21603 9.56532C6.55329 9.39347 6.90995 9.32636 7.28983 9.29532C7.65407 9.26556 8.09991 9.26557 8.63407 9.26558H8.6645H9.54618H9.57662C10.1108 9.26557 10.5566 9.26556 10.9209 9.29532C11.3007 9.32636 11.6574 9.39347 11.9947 9.56532C12.5121 9.82897 12.9328 10.2497 13.1965 10.7671C13.3683 11.1044 13.4354 11.461 13.4664 11.8409C13.4962 12.2051 13.4962 12.651 13.4962 13.1851V13.1851V13.2156V16.5436C13.8542 16.5393 14.1505 16.5298 14.4066 16.5089C14.8604 16.4718 15.1212 16.4027 15.3187 16.302C15.7421 16.0863 16.0863 15.7421 16.302 15.3187C16.4026 15.1212 16.4718 14.8605 16.5089 14.4066C16.5466 13.944 16.5472 13.3497 16.5472 12.4973V6.54255C16.5472 5.77308 16.5424 5.51058 16.4851 5.27171C16.4299 5.04213 16.339 4.82266 16.2157 4.62134C16.0873 4.41189 15.9051 4.22286 15.361 3.67877L14.5319 2.8497C13.9879 2.3056 13.7988 2.1234 13.5894 1.99504C13.3881 1.87168 13.1686 1.78077 12.939 1.72565ZM12.7533 18.0472C13.4637 18.0469 14.0475 18.0432 14.5287 18.0039C15.0753 17.9592 15.5555 17.8649 15.9997 17.6385C16.7053 17.279 17.279 16.7053 17.6385 15.9997C17.8648 15.5555 17.9592 15.0754 18.0039 14.5287C18.0472 13.9978 18.0472 13.3422 18.0472 12.5294V12.4973V6.54255L18.0472 6.45709C18.0474 5.80553 18.0476 5.35452 17.9436 4.92154C17.8518 4.53891 17.7002 4.17312 17.4946 3.83759C17.262 3.45793 16.943 3.13911 16.4821 2.67853L16.4217 2.61811L15.5926 1.78904L15.5322 1.72861C15.0716 1.26775 14.7528 0.948742 14.3731 0.716084C14.0376 0.510476 13.6718 0.35896 13.2892 0.267097C12.8562 0.163149 12.4052 0.163279 11.7536 0.163468L11.6682 0.163484L5.71345 0.163484L5.68135 0.163484C4.86851 0.163477 4.21289 0.163471 3.68199 0.206848C3.13535 0.25151 2.65521 0.345869 2.21099 0.57221C1.50538 0.931735 0.931704 1.50541 0.572178 2.21102C0.345838 2.65524 0.251478 3.13538 0.206816 3.68202C0.163439 4.21292 0.163445 4.86853 0.163452 5.68136V5.68138V5.71348L0.163452 12.4973V12.5294V12.5294C0.163445 13.3422 0.163439 13.9978 0.206816 14.5287C0.251478 15.0754 0.345838 15.5555 0.572178 15.9997C0.931704 16.7053 1.50538 17.279 2.21099 17.6385C2.65521 17.8649 3.13535 17.9592 3.68198 18.0039C4.16323 18.0432 4.74695 18.0469 5.45735 18.0472C5.45973 18.0473 5.46211 18.0473 5.4645 18.0473C5.46666 18.0473 5.46882 18.0473 5.47097 18.0472C5.5399 18.0473 5.61001 18.0473 5.68133 18.0473H5.71345H12.4972H12.5294C12.6007 18.0473 12.6708 18.0473 12.7397 18.0472C12.7419 18.0473 12.744 18.0473 12.7462 18.0473C12.7486 18.0473 12.751 18.0473 12.7533 18.0472ZM11.9962 16.5473V13.2156C11.9962 12.6432 11.9956 12.2589 11.9714 11.9631C11.948 11.6759 11.9061 11.5387 11.8599 11.4481C11.7401 11.2129 11.5489 11.0217 11.3137 10.9018C11.2231 10.8557 11.0858 10.8138 10.7987 10.7903C10.5028 10.7662 10.1186 10.7656 9.54618 10.7656H8.6645C8.09207 10.7656 7.70786 10.7662 7.41198 10.7903C7.12486 10.8138 6.98758 10.8557 6.89701 10.9018C6.66181 11.0217 6.47059 11.2129 6.35074 11.4481C6.3046 11.5387 6.26272 11.6759 6.23926 11.9631C6.21509 12.2589 6.2145 12.6432 6.2145 13.2156V16.5473H11.9962ZM4.7145 5.46453C4.7145 5.05032 5.05029 4.71453 5.4645 4.71453L12.7462 4.71453C13.1604 4.71453 13.4962 5.05032 13.4962 5.46453C13.4962 5.87875 13.1604 6.21453 12.7462 6.21453L5.4645 6.21453C5.05029 6.21453 4.7145 5.87875 4.7145 5.46453Z" fill="currentColor"/>
</svg>
