<svg width="21" height="21" viewBox="0 0 21 21" fill="none" xmlns="http://www.w3.org/2000/svg">
<path fill-rule="evenodd" clip-rule="evenodd" d="M2 8.61905C2 4.98411 5.01856 2 8.78879 2C12.559 2 15.5776 4.98411 15.5776 8.61905C15.5776 12.254 12.559 15.2381 8.78879 15.2381C5.01856 15.2381 2 12.254 2 8.61905ZM8.78879 0C3.95576 0 0 3.83822 0 8.61905C0 13.3999 3.95576 17.2381 8.78879 17.2381C13.6218 17.2381 17.5776 13.3999 17.5776 8.61905C17.5776 3.83822 13.6218 0 8.78879 0ZM16.3202 15.032C15.9249 14.6463 15.2917 14.6541 14.9061 15.0494C14.5204 15.4447 14.5282 16.0778 14.9235 16.4635L18.3545 19.811C18.7498 20.1967 19.3829 20.1889 19.7686 19.7936C20.1543 19.3983 20.1465 18.7652 19.7512 18.3795L16.3202 15.032Z" fill="currentColor"/>
</svg>
