<svg width="24" height="24" viewBox="0 0 24 24" fill="none" xmlns="http://www.w3.org/2000/svg">
  <path fill-rule="evenodd" clip-rule="evenodd" d="M10.3333 8.75C10.3333 7.23122 11.5646 6 13.0833 6C14.3421 6 15.4034 6.84575 15.7298 8H17.75C18.1642 8 18.5 8.33579 18.5 8.75C18.5 9.16421 18.1642 9.5 17.75 9.5H15.7298C15.4034 10.6543 14.3421 11.5 13.0833 11.5C11.5646 11.5 10.3333 10.2688 10.3333 8.75ZM13.0833 10C13.7737 10 14.3333 9.44036 14.3333 8.75C14.3333 8.05964 13.7737 7.5 13.0833 7.5C12.393 7.5 11.8333 8.05964 11.8333 8.75C11.8333 9.44036 12.393 10 13.0833 10ZM5.75 8C5.33579 8 5 8.33579 5 8.75C5 9.16421 5.33579 9.5 5.75 9.5H9.08333C9.49755 9.5 9.83333 9.16421 9.83333 8.75C9.83333 8.33579 9.49755 8 9.08333 8H5.75ZM5.75 14.6667C5.33579 14.6667 5 15.0025 5 15.4167C5 15.8309 5.33579 16.1667 5.75 16.1667H7.77018C8.09665 17.3209 9.15789 18.1667 10.4167 18.1667C11.9354 18.1667 13.1667 16.9354 13.1667 15.4167C13.1667 13.8979 11.9354 12.6667 10.4167 12.6667C9.15789 12.6667 8.09665 13.5124 7.77018 14.6667H5.75ZM9.16667 15.4168C9.16675 16.1071 9.72636 16.6667 10.4167 16.6667C11.107 16.6667 11.6667 16.107 11.6667 15.4167C11.6667 14.7263 11.107 14.1667 10.4167 14.1667C9.72631 14.1667 9.16667 14.7265 9.16667 15.4168ZM14.4167 14.6667C14.0025 14.6667 13.6667 15.0025 13.6667 15.4167C13.6667 15.8309 14.0025 16.1667 14.4167 16.1667H17.75C18.1642 16.1667 18.5 15.8309 18.5 15.4167C18.5 15.0025 18.1642 14.6667 17.75 14.6667H14.4167Z" fill="#2A3647"/>
</svg>
