<svg width="20" height="20" viewBox="0 0 20 20" fill="none" xmlns="http://www.w3.org/2000/svg">
<path fill-rule="evenodd" clip-rule="evenodd" d="M10 1.39535C5.24778 1.39535 1.39535 5.24778 1.39535 10C1.39535 14.7522 5.24778 18.6047 10 18.6047C14.7522 18.6047 18.6047 14.7522 18.6047 10C18.6047 5.24778 14.7522 1.39535 10 1.39535ZM0 10C0 4.47715 4.47715 0 10 0C15.5228 0 20 4.47715 20 10C20 15.5228 15.5228 20 10 20C4.47715 20 0 15.5228 0 10Z" fill="#066C4D"/>
<path fill-rule="evenodd" clip-rule="evenodd" d="M13.7491 7.18109C14.0216 7.45355 14.0216 7.89529 13.7491 8.16775L9.09798 12.8189C8.82552 13.0914 8.38378 13.0914 8.11132 12.8189L6.25086 10.9584C5.9784 10.686 5.9784 10.2442 6.25086 9.97179C6.52331 9.69933 6.96506 9.69933 7.23752 9.97179L8.60465 11.3389L12.7625 7.18109C13.0349 6.90863 13.4767 6.90863 13.7491 7.18109Z" fill="#066C4D"/>
</svg>
