<svg width="24" height="38" viewBox="0 0 24 38" fill="none" xmlns="http://www.w3.org/2000/svg">
<path d="M11.4059 9.24598L6.24629 14.4058C5.9179 14.734 5.9179 15.2662 6.24629 15.5943C6.57438 15.9224 7.10652 15.9224 7.43459 15.5943L12.0001 11.0286L16.5654 15.5941C16.8937 15.9222 17.4257 15.9222 17.7538 15.5941C18.0821 15.266 18.0821 14.7339 17.7538 14.4057L12.5941 9.24585C12.43 9.0818 12.2151 8.99987 12.0001 8.99987C11.785 8.99987 11.57 9.08196 11.4059 9.24598Z" fill="#B4B8BF"/>
<path d="M12.5941 29.5942L17.7537 24.4344C18.0821 24.1062 18.0821 23.574 17.7537 23.2459C17.4256 22.9179 16.8935 22.9179 16.5654 23.2459L11.9999 27.8116L7.43457 23.2461C7.10635 22.918 6.57426 22.918 6.24617 23.2461C5.91794 23.5742 5.91794 24.1063 6.24617 24.4345L11.4059 29.5944C11.57 29.7584 11.7849 29.8403 11.9999 29.8403C12.215 29.8403 12.43 29.7582 12.5941 29.5942Z" fill="#B4B8BF"/>
</svg>
