<svg width="196" height="50" viewBox="0 0 196 50" fill="none" xmlns="http://www.w3.org/2000/svg">
<path d="M190.148 49.3237V45.156H181.827V49.3237H175.974V40.1896H196V49.3237H190.148ZM178.792 24.0123H194.127V45.156H187.853V28.9788H184.354L184.165 34.1776C184.087 36.4042 183.923 38.1129 183.671 39.3037C183.419 40.4945 183.08 41.6708 182.654 42.8325H176.701C177.223 41.4771 177.63 40.1992 177.92 38.9988C178.211 37.7983 178.39 36.0751 178.458 33.829L178.792 24.0123Z" fill="#1E58C9"/>
<path d="M155.949 45.156L162.687 24.0123H169.585L176.105 45.156H169.963L166.332 32.0864C166.216 31.6895 166.124 31.3458 166.056 31.0554C165.988 30.7553 165.935 30.5278 165.896 30.3729H165.853C165.814 30.5278 165.756 30.7553 165.679 31.0554C165.611 31.3458 165.524 31.6847 165.417 32.0719L162.005 45.156H155.949ZM160.16 41.5691L160.945 37.5321H170.921L171.778 41.5691H160.16Z" fill="#1E58C9"/>
<path d="M138.363 35.1505V34.0178C138.363 30.339 139.201 27.7057 140.875 26.118C142.56 24.5206 144.758 23.7219 147.468 23.7219C150.043 23.7219 152.062 24.3125 153.524 25.4936C154.986 26.6747 155.717 28.5044 155.717 30.9828V32.5657H149.806V30.3729C149.806 29.5984 149.618 29.0078 149.24 28.6012C148.872 28.1849 148.325 27.9768 147.599 27.9768C146.795 27.9768 146.171 28.3011 145.726 28.9498C145.29 29.5887 145.072 30.6246 145.072 32.0574V37.111C145.072 38.5728 145.295 39.6378 145.74 40.3058C146.195 40.9641 146.824 41.2932 147.628 41.2932C148.354 41.2932 148.896 41.0657 149.254 40.6107C149.622 40.146 149.806 39.3957 149.806 38.3598V36.6898H155.717V38.5922C155.717 40.7608 154.986 42.4453 153.524 43.6458C152.072 44.8365 150.053 45.4319 147.468 45.4319C144.661 45.4319 142.439 44.6236 140.803 43.0068C139.176 41.3804 138.363 38.7616 138.363 35.1505Z" fill="#1E58C9"/>
<path d="M128.982 45.156H122.796L122.781 35.8185C122.781 35.286 122.791 34.8407 122.81 34.4825C122.839 34.1243 122.859 33.7758 122.868 33.4369H122.752C122.675 33.7855 122.588 34.1195 122.491 34.4389C122.404 34.7487 122.268 35.1699 122.084 35.7023L118.526 45.156H111.817V24.0123H118.018L118.004 33.2772C118.004 33.8387 117.999 34.3131 117.989 34.7003C117.98 35.0876 117.965 35.4458 117.946 35.7749H118.062C118.149 35.3974 118.241 35.0392 118.338 34.7003C118.435 34.3615 118.57 33.9162 118.744 33.3643L122.288 24.0123H128.982V45.156ZM120.371 19.6122C121.019 19.6122 121.528 19.4041 121.896 18.9878C122.273 18.5715 122.583 17.9374 122.825 17.0854L126.397 18.2762C125.923 19.7187 125.182 20.8417 124.175 21.6453C123.169 22.4488 121.9 22.8506 120.371 22.8506C118.841 22.8506 117.573 22.4488 116.566 21.6453C115.559 20.8417 114.819 19.7187 114.344 18.2762L117.917 17.0854C118.159 17.9374 118.464 18.5715 118.831 18.9878C119.209 19.4041 119.722 19.6122 120.371 19.6122Z" fill="#1E58C9"/>
<path d="M109.668 45.156H103.482L103.467 35.8185C103.467 35.286 103.477 34.8407 103.497 34.4825C103.526 34.1243 103.545 33.7758 103.555 33.4369H103.438C103.361 33.7855 103.274 34.1195 103.177 34.4389C103.09 34.7487 102.954 35.1699 102.77 35.7023L99.2126 45.156H92.5035V24.0123H98.7043L98.6898 33.2772C98.6898 33.8387 98.685 34.3131 98.6753 34.7003C98.6656 35.0876 98.6511 35.4458 98.6317 35.7749H98.7479C98.835 35.3974 98.927 35.0392 99.0238 34.7003C99.1206 34.3615 99.2562 33.9162 99.4304 33.3643L102.974 24.0123H109.668V45.156Z" fill="#1E58C9"/>
<path d="M84.7199 45.156L80.0875 35.6878L85.78 33.1901L91.7339 45.156H84.7199ZM76.4716 31.8831H80.5232L84.4876 24.0123H90.8772L84.4295 36.8496H76.4716V31.8831ZM73.3058 45.156V24.0123H79.5938V45.156H73.3058Z" fill="#1E58C9"/>
<path d="M54.3985 35.1505V34.0178C54.3985 30.339 55.2359 27.7057 56.9108 26.118C58.5953 24.5206 60.7929 23.7219 63.5036 23.7219C66.0788 23.7219 68.0973 24.3125 69.5592 25.4936C71.0211 26.6747 71.752 28.5044 71.752 30.9828V32.5657H65.8416V30.3729C65.8416 29.5984 65.6529 29.0078 65.2753 28.6012C64.9074 28.1849 64.3604 27.9768 63.6343 27.9768C62.8308 27.9768 62.2064 28.3011 61.761 28.9498C61.3254 29.5887 61.1075 30.6246 61.1075 32.0574V37.111C61.1075 38.5728 61.3302 39.6378 61.7755 40.3058C62.2306 40.9641 62.8598 41.2932 63.6634 41.2932C64.3895 41.2932 64.9316 41.0657 65.2898 40.6107C65.6577 40.146 65.8416 39.3957 65.8416 38.3598V36.6898H71.752V38.5922C71.752 40.7608 71.0211 42.4453 69.5592 43.6458C68.107 44.8365 66.0885 45.4319 63.5036 45.4319C60.6961 45.4319 58.4743 44.6236 56.8382 43.0068C55.2117 41.3804 54.3985 38.7616 54.3985 35.1505Z" fill="#1E58C9"/>
<path d="M36.4496 28.9497V24.0123H53.5998V28.9497H48.2268V45.156H41.8517V28.9497H36.4496Z" fill="#1E58C9"/>
<path d="M21.2889 45.156V24.0123H35.8978V28.9497H27.3009V32.3623H34.6635V36.6462H27.3009V40.4074H36.1447V45.156H21.2889Z" fill="#1E58C9"/>
<path d="M14.1732 49.3237V45.156H5.85226V49.3237H0V40.1896H20.0255V49.3237H14.1732ZM2.81722 24.0123H18.1522V45.156H11.8788V28.9788H8.37905L8.19026 34.1776C8.11282 36.4042 7.94824 38.1129 7.69653 39.3037C7.44482 40.4945 7.10597 41.6708 6.68 42.8325H0.726087C1.24887 41.4771 1.65548 40.1992 1.94591 38.9988C2.23635 37.7983 2.41545 36.0751 2.48322 33.829L2.81722 24.0123Z" fill="#1E58C9"/>
<path d="M119.291 15.4154V5.07959H122.195V10.7003C122.195 10.9726 122.191 11.1972 122.184 11.3739C122.184 11.5505 122.173 11.7787 122.151 12.0585H122.228C122.346 11.7935 122.438 11.5947 122.504 11.4622C122.57 11.3297 122.696 11.0831 122.88 10.7223L125.916 5.07959H129.008V15.4154H126.104V9.77268C126.104 9.48557 126.104 9.25736 126.104 9.08804C126.111 8.91872 126.122 8.69419 126.137 8.41444H126.071C125.953 8.67947 125.861 8.87823 125.795 9.01074C125.729 9.14325 125.607 9.38987 125.43 9.7506L122.394 15.4154H119.291ZM124.149 1.89932C124.635 1.89932 125.04 1.74841 125.364 1.44658C125.695 1.13739 125.983 0.658874 126.225 0.0110426L128.092 0.817151C127.746 1.73 127.241 2.43673 126.579 2.93733C125.924 3.43056 125.114 3.67718 124.149 3.67718C123.185 3.67718 122.375 3.43056 121.72 2.93733C121.065 2.44409 120.561 1.73737 120.207 0.817151L122.084 0C122.327 0.655193 122.611 1.13739 122.935 1.44658C123.259 1.74841 123.664 1.89932 124.149 1.89932Z" fill="#1FB982"/>
<path d="M106.702 5.07959V8.33715H109.153C110.42 8.33715 111.38 8.6537 112.036 9.28681C112.698 9.91992 113.029 10.7886 113.029 11.8929C113.029 13.0118 112.698 13.8805 112.036 14.4989C111.38 15.1099 110.42 15.4154 109.153 15.4154H103.787V5.07959H106.702ZM108.513 10.2696H106.702V13.4719H108.513C109.102 13.4719 109.522 13.3284 109.772 13.0413C110.022 12.7468 110.147 12.353 110.147 11.8597C110.147 11.3812 110.022 10.9984 109.772 10.7113C109.529 10.4168 109.109 10.2696 108.513 10.2696ZM114.134 15.4154V5.07959H117.082V15.4154H114.134Z" fill="#1FB982"/>
<path d="M91.9713 5.07959H94.8866V9.11013H98.6521V5.07959H101.567V15.4154H98.6521V11.2634H94.8866V15.4154H91.9713V5.07959Z" fill="#1FB982"/>
<path d="M80.1558 5.07959H83.071V9.11013H86.8365V5.07959H89.7518V15.4154H86.8365V11.2634H83.071V15.4154H80.1558V5.07959Z" fill="#1FB982"/>
<path d="M67.6225 10.4022V10.0488C67.6225 8.4734 68.1194 7.2035 69.1132 6.23911C70.1071 5.26737 71.4211 4.78149 73.0554 4.78149C74.7045 4.78149 76.0222 5.26737 77.0087 6.23911C78.0025 7.2035 78.4994 8.4734 78.4994 10.0488V10.4022C78.4994 11.9923 78.0025 13.2696 77.0087 14.2339C76.0222 15.1983 74.7045 15.6805 73.0554 15.6805C71.4138 15.6805 70.096 15.1983 69.1022 14.2339C68.1157 13.2696 67.6225 11.9923 67.6225 10.4022ZM70.5819 9.96046V10.4795C70.5819 11.3923 70.7917 12.1322 71.2113 12.699C71.631 13.2659 72.2457 13.5493 73.0554 13.5493C73.8726 13.5493 74.491 13.2659 74.9106 12.699C75.3302 12.1322 75.54 11.3923 75.54 10.4795V9.96046C75.54 9.05497 75.3265 8.32616 74.8996 7.77403C74.4799 7.21454 73.8652 6.9348 73.0554 6.9348C72.253 6.9348 71.6383 7.21454 71.2113 7.77403C70.7917 8.32616 70.5819 9.05497 70.5819 9.96046Z" fill="#1FB982"/>
<path d="M56.105 20.1858V5.07954H58.9208L58.9429 6.39361H58.965C59.2374 5.9519 59.6644 5.58014 60.2459 5.27831C60.8275 4.97648 61.4864 4.82556 62.2226 4.82556C63.5403 4.82556 64.5894 5.28567 65.3697 6.20588C66.15 7.1261 66.5402 8.39599 66.5402 10.0156V10.3689C66.5402 11.9738 66.1427 13.2547 65.3476 14.2118C64.5599 15.1614 63.5109 15.6362 62.2005 15.6362C61.4569 15.6362 60.8238 15.5111 60.3012 15.2608C59.7785 15.0031 59.3478 14.6682 59.0092 14.2559V20.1858H56.105ZM59.0092 12.0364C59.1859 12.4413 59.4619 12.7946 59.8374 13.0965C60.2202 13.3983 60.6877 13.5492 61.2398 13.5492C62.0422 13.5492 62.6311 13.2621 63.0066 12.6879C63.3894 12.1063 63.5808 11.3628 63.5808 10.4573V9.94932C63.5808 9.03646 63.3894 8.30765 63.0066 7.76289C62.6238 7.21812 62.0385 6.94574 61.2508 6.94574C60.6913 6.94574 60.2202 7.09665 59.8374 7.39848C59.4546 7.70031 59.1785 8.04999 59.0092 8.44753V12.0364Z" fill="#1FB982"/>
<path d="M45.1949 7.28811V5.07959H54.6695V7.28811H51.3898V15.4154H48.4856V7.28811H45.1949Z" fill="#1FB982"/>
<path d="M41.5729 15.4154L38.2712 10.7003L40.4687 9.06596L45.0182 15.4154H41.5729ZM36.2283 9.11013H38.6356L41.2527 5.07959H44.4661L40.3141 11.2745H36.2283V9.11013ZM37.6859 5.07959V15.4154H34.7707V5.07959H37.6859Z" fill="#1FB982"/>
<path d="M23.0104 10.4021V10.0487C23.0104 8.45125 23.4889 7.17768 24.446 6.22802C25.403 5.27099 26.6803 4.79248 28.2777 4.79248C29.8532 4.79248 31.0642 5.24523 31.9108 6.15072C32.7574 7.05621 33.1807 8.3077 33.1807 9.90519V10.7665H24.6116V9.14326H30.3427V9.05492C30.3427 8.45862 30.1771 7.94698 29.8458 7.52C29.5145 7.09302 28.9845 6.87953 28.2557 6.87953C27.49 6.87953 26.9085 7.15559 26.5109 7.70772C26.1134 8.25985 25.9146 8.95553 25.9146 9.79477V10.4242C25.9146 11.3959 26.1281 12.1652 26.5551 12.7321C26.9821 13.2916 27.5968 13.5713 28.3992 13.5713C28.9734 13.5713 29.4519 13.4535 29.8347 13.218C30.2249 12.9824 30.5304 12.6769 30.7513 12.3014L33.0923 13.1628C32.7684 13.9063 32.2273 14.5136 31.4691 14.9848C30.7108 15.4486 29.6986 15.6805 28.4323 15.6805C26.7097 15.6805 25.3735 15.2056 24.4239 14.256C23.4816 13.3063 23.0104 12.0217 23.0104 10.4021Z" fill="#1FB982"/>
<path d="M15.4793 7.28811L15.3357 10.3469C15.2695 12.2241 15.0008 13.5677 14.5296 14.3774C14.0585 15.1872 13.2707 15.5921 12.1665 15.5921C11.9309 15.5921 11.7101 15.5811 11.5039 15.559C11.3052 15.5369 11.1395 15.5001 11.007 15.4486V13.0523C11.0954 13.0744 11.18 13.0928 11.261 13.1075C11.3493 13.1223 11.4487 13.1296 11.5591 13.1296C11.9935 13.1296 12.2953 12.9014 12.4646 12.445C12.6413 11.9886 12.7481 11.2303 12.7849 10.1702L13.0057 5.07959H21.3539V15.4154H18.4387V7.28811H15.4793Z" fill="#1FB982"/>
<path d="M10.2451 10.4022C10.2451 12.0365 9.77399 13.3248 8.83169 14.2671C7.88939 15.2094 6.61949 15.6805 5.022 15.6805C3.49812 15.6805 2.32761 15.3161 1.51046 14.5873C0.700671 13.8511 0.295776 12.9272 0.295776 11.8156V11.6058H2.89078V11.7494C2.89078 12.3309 3.06746 12.791 3.42083 13.1297C3.77419 13.461 4.30055 13.6266 4.99991 13.6266C5.77289 13.6266 6.36183 13.3469 6.76673 12.7874C7.17898 12.2205 7.38511 11.4549 7.38511 10.4905V9.92734C7.38511 8.9335 7.17898 8.17893 6.76673 7.66361C6.35447 7.14092 5.76921 6.87958 5.01096 6.87958C4.34104 6.87958 3.8294 7.04522 3.47604 7.3765C3.12268 7.70042 2.946 8.1458 2.946 8.71265V8.85621H0.328904V8.6464C0.365713 7.51269 0.78165 6.58512 1.57672 5.86367C2.37178 5.14222 3.53493 4.78149 5.06617 4.78149C6.66366 4.78149 7.9262 5.24896 8.85377 6.1839C9.78135 7.11148 10.2451 8.39978 10.2451 10.0488V10.4022ZM8.8096 9.26478V11.0758H3.87357V9.26478H8.8096Z" fill="#1FB982"/>
</svg>
