<svg width="46" height="46" viewBox="0 0 46 46" fill="none" xmlns="http://www.w3.org/2000/svg">
<g filter="url(#filter0_d_520_27166)">
<rect x="3" y="3" width="40" height="40" rx="20" fill="#164D9E"/>
<path fill-rule="evenodd" clip-rule="evenodd" d="M23.0001 16.6585C21.6491 16.6585 20.5538 17.7824 20.5538 19.1687C20.5538 20.555 21.6491 21.6789 23.0001 21.6789C24.3511 21.6789 25.4463 20.555 25.4463 19.1687C25.4463 17.7824 24.3511 16.6585 23.0001 16.6585ZM19.4248 19.1687C19.4248 17.1425 21.0255 15.5 23.0001 15.5C24.9746 15.5 26.5753 17.1425 26.5753 19.1687C26.5753 21.1949 24.9746 22.8374 23.0001 22.8374C21.0255 22.8374 19.4248 21.1949 19.4248 19.1687Z" fill="white"/>
<path fill-rule="evenodd" clip-rule="evenodd" d="M19.5545 25.983C18.6849 26.4929 18.2958 27.1091 18.2958 27.6646C18.2958 28.2202 18.6849 28.8363 19.5545 29.3462C20.4082 29.8468 21.6252 30.1748 23.0001 30.1748C24.375 30.1748 25.592 29.8468 26.4456 29.3462C27.3152 28.8363 27.7044 28.2202 27.7044 27.6646C27.7044 27.1091 27.3152 26.4929 26.4456 25.983C25.592 25.4825 24.375 25.1545 23.0001 25.1545C21.6252 25.1545 20.4082 25.4825 19.5545 25.983ZM18.9944 24.9771C20.0477 24.3595 21.4651 23.9959 23.0001 23.9959C24.5351 23.9959 25.9525 24.3595 27.0058 24.9771C28.0431 25.5854 28.8334 26.5139 28.8334 27.6646C28.8334 28.8153 28.0431 29.7439 27.0058 30.3521C25.9525 30.9697 24.5351 31.3333 23.0001 31.3333C21.4651 31.3333 20.0477 30.9697 18.9944 30.3521C17.9571 29.7439 17.1667 28.8153 17.1667 27.6646C17.1667 26.5139 17.9571 25.5854 18.9944 24.9771Z" fill="white"/>
</g>
<defs>
<filter id="filter0_d_520_27166" x="0" y="0" width="46" height="46" filterUnits="userSpaceOnUse" color-interpolation-filters="sRGB">
<feFlood flood-opacity="0" result="BackgroundImageFix"/>
<feColorMatrix in="SourceAlpha" type="matrix" values="0 0 0 0 0 0 0 0 0 0 0 0 0 0 0 0 0 0 127 0" result="hardAlpha"/>
<feOffset/>
<feGaussianBlur stdDeviation="1.5"/>
<feColorMatrix type="matrix" values="0 0 0 0 0.16401 0 0 0 0 0.210073 0 0 0 0 0.279167 0 0 0 0.25 0"/>
<feBlend mode="normal" in2="BackgroundImageFix" result="effect1_dropShadow_520_27166"/>
<feBlend mode="normal" in="SourceGraphic" in2="effect1_dropShadow_520_27166" result="shape"/>
</filter>
</defs>
</svg>
